# xmcd
#
# Track frame offsets: 
#        150
#        14589
#        33740
#        66928
#        86900
#        123021
#        146247
#        166479
#        181882
#        203632
#        222249
#        237069
#        262069
#        287987
#        302486
#        320549
#
# Disc length: 4454 seconds
#
# Revision: 0
# Processed by: cddbd v1.5.2PL0 Copyright (c) Steve Scherf et al.
# Submitted via: ExactAudioCopy v0.95b4
#
DISCID=f2116410
DTITLE=Eddie Kendricks - Keep On Truckin': The Motown Solo Albums, Vol
DTITLE=1 [CD2]
DYEAR=2006
DGENRE=R&B
TTITLE0=Only Room For Two
TTITLE1=Darling Come Back Home
TTITLE2=Each Day I Cry A Little
TTITLE3=Can't Help What I Am
TTITLE4=Keep On Truckin'
TTITLE5=Any Day Now
TTITLE6=Not On The Outside
TTITLE7=Where Do You Go (Baby)
TTITLE8=Please Don't Go Away
TTITLE9=One Tear
TTITLE10=Shoeshine Boy
TTITLE11=Deep And Quiet Love
TTITLE12=Let Yourself Go
TTITLE13=If
TTITLE14=If You Think (You Can)
TTITLE15=Time In A Bottle
EXTD=
EXTT0=
EXTT1=
EXTT2=
EXTT3=
EXTT4=
EXTT5=
EXTT6=
EXTT7=
EXTT8=
EXTT9=
EXTT10=
EXTT11=
EXTT12=
EXTT13=
EXTT14=
EXTT15=
PLAYORDER=
